<?xml version="1.0" standalone="no"?>
<!DOCTYPE svg PUBLIC "-//W3C//DTD SVG 20010904//EN"
 "http://www.w3.org/TR/2001/REC-SVG-20010904/DTD/svg10.dtd">
<svg version="1.0" xmlns="http://www.w3.org/2000/svg"
 width="481.000000pt" height="352.000000pt" viewBox="0 0 481.000000 352.000000"
 preserveAspectRatio="xMidYMid meet">

<g transform="translate(0.000000,352.000000) scale(0.100000,-0.100000)"
fill="#000000" stroke="none">
<path d="M2208 3421 c-31 -10 -72 -28 -91 -40 -48 -29 -121 -110 -148 -162
-18 -36 -23 -41 -29 -25 -10 31 -41 -59 -47 -139 -4 -55 -1 -81 15 -123 18
-47 19 -57 7 -85 -16 -40 -45 -137 -40 -137 1 0 17 28 35 63 18 34 39 70 48
80 22 25 57 21 80 -10 l19 -26 23 26 c12 14 35 31 50 37 17 7 35 27 45 50 10
22 26 47 36 56 20 18 24 13 10 -14 -4 -9 -11 -29 -14 -43 -7 -26 -6 -26 41
-22 39 4 55 13 96 52 l49 46 -33 -49 c-24 -36 -29 -48 -16 -43 10 4 29 7 44 7
19 0 42 16 81 58 l55 57 -28 -48 c-15 -27 -26 -51 -23 -53 5 -6 94 15 119 27
12 7 15 5 12 -9 -4 -12 7 -23 37 -37 54 -26 86 -77 70 -113 -9 -19 -8 -29 9
-53 l21 -29 -59 -78 -60 -78 44 -18 c60 -25 121 -71 144 -109 18 -28 20 -51
20 -197 0 -150 -2 -172 -27 -252 -15 -49 -30 -83 -33 -78 -4 6 -16 -3 -30 -23
-29 -42 -102 -97 -202 -150 -62 -34 -76 -46 -72 -60 5 -16 3 -17 -13 -8 -10 5
-42 32 -71 59 -92 85 -232 137 -306 112 -26 -8 -41 -7 -70 5 -35 15 -40 15
-62 0 -32 -21 -31 -60 2 -118 14 -25 39 -101 55 -169 31 -127 55 -178 94 -204
12 -8 59 -17 103 -21 66 -5 86 -3 106 11 31 20 36 20 36 0 0 -11 6 -14 23 -9
46 13 193 87 239 120 56 41 62 42 53 14 -7 -21 -7 -21 35 2 41 23 204 163 268
231 l33 35 -10 102 c-6 56 -18 124 -27 152 -9 27 -14 53 -10 56 3 4 6 -2 6
-12 0 -27 13 -9 18 23 2 15 12 42 23 60 21 36 25 87 8 98 -16 9 -1 93 22 126
22 30 79 53 113 44 30 -7 46 -45 46 -112 0 -68 -18 -113 -64 -159 -30 -29 -36
-43 -37 -78 0 -23 -2 -53 -5 -66 l-4 -24 21 27 c11 14 44 77 72 139 40 89 51
126 55 178 6 101 -31 157 -99 147 -18 -3 -26 -1 -21 4 5 5 28 9 51 10 38 0 41
2 50 37 24 88 33 181 29 277 -3 57 -1 101 4 98 27 -17 -16 119 -58 182 -19 28
-57 72 -84 98 -32 30 -43 46 -33 46 12 0 8 10 -18 36 -43 45 -175 110 -259
128 -36 8 -59 15 -52 15 28 2 9 18 -35 29 -88 22 -217 34 -302 27 -60 -5 -81
-4 -77 4 11 17 -40 13 -106 -8z m17 -102 c-20 -18 -43 -45 -51 -61 l-15 -28
46 35 c57 43 146 71 256 80 86 8 107 2 34 -9 -71 -11 -166 -49 -203 -83 l-37
-33 47 19 c56 24 158 45 184 39 16 -4 14 -7 -11 -17 -144 -59 -302 -195 -349
-302 -8 -19 -15 -27 -15 -19 -2 26 29 134 45 158 8 12 12 22 8 22 -12 0 -74
-71 -74 -85 0 -8 -4 -15 -8 -15 -12 0 -3 88 14 130 l14 35 -34 -38 c-35 -40
-76 -115 -76 -141 0 -8 -4 -17 -8 -20 -5 -3 -5 19 -1 48 19 118 77 203 189
279 67 45 94 48 45 6z m822 -228 c49 -47 70 -77 83 -120 7 -24 6 -31 -6 -31
-18 0 -18 2 11 -62 29 -62 42 -196 27 -268 l-10 -45 -1 65 c-3 132 -46 253
-116 327 l-42 43 29 0 c22 0 28 5 28 21 0 25 -16 57 -43 87 -34 37 -5 25 40
-17z m-200 -435 c-14 -41 -14 -46 0 -58 38 -31 69 -147 43 -163 -6 -3 -10 4
-10 17 0 37 -48 125 -80 145 l-28 18 41 47 c23 26 43 45 45 43 3 -2 -3 -24
-11 -49z m-45 -932 l-5 -26 43 22 c23 12 44 20 46 18 2 -2 -37 -44 -87 -94
-88 -86 -91 -88 -84 -54 9 39 18 43 -99 -45 -71 -54 -184 -125 -199 -125 -5 0
24 26 64 57 114 88 230 187 274 232 46 48 54 50 47 15z m-553 -15 c60 -20 63
-23 45 -37 -47 -36 -109 -55 -184 -56 l-75 -1 -27 55 c-15 30 -27 59 -27 64
-2 17 201 -1 268 -25z"/>
<path d="M2255 2650 c40 -9 122 -13 114 -6 -2 2 -38 6 -79 9 -56 4 -65 3 -35
-3z"/>
<path d="M1888 2643 c12 -2 30 -2 40 0 9 3 -1 5 -23 4 -22 0 -30 -2 -17 -4z"/>
<path d="M3618 2625 c-50 -12 -78 -30 -78 -49 0 -13 345 -187 354 -178 12 11
6 75 -10 108 -22 46 -97 99 -164 117 -45 11 -65 12 -102 2z"/>
<path d="M1265 2618 c-49 -18 -112 -65 -134 -102 -24 -38 -29 -116 -8 -116 10
0 335 155 345 164 8 9 -14 39 -39 51 -32 17 -120 18 -164 3z"/>
<path d="M1898 2573 c12 -2 30 -2 40 0 9 3 -1 5 -23 4 -22 0 -30 -2 -17 -4z"/>
<path d="M2131 2576 c2 -2 45 -6 94 -9 63 -4 77 -3 45 3 -45 9 -147 13 -139 6z"/>
<path d="M1510 2528 c0 -6 -3 -8 -7 -5 -3 4 -22 -3 -42 -15 -20 -13 -38 -22
-41 -20 -8 4 -70 -32 -70 -41 0 -4 -4 -6 -10 -2 -11 7 -51 -14 -63 -33 -5 -7
-12 -10 -17 -7 -4 3 -35 -9 -68 -25 -34 -17 -65 -30 -70 -30 -5 0 -16 -8 -26
-18 -13 -16 -14 -24 -5 -53 7 -19 16 -38 20 -43 5 -6 9 -19 10 -30 0 -12 3
-16 5 -9 3 7 12 9 20 6 8 -3 14 0 14 6 0 6 3 10 8 9 15 -4 52 14 47 23 -3 5 2
6 11 2 12 -4 15 -3 10 5 -4 7 -2 10 6 7 8 -3 96 35 196 85 l182 91 -22 41
c-27 47 -88 86 -88 56z"/>
<path d="M3436 2515 c-9 -14 -14 -25 -11 -25 3 0 -4 -9 -16 -21 -11 -11 -19
-26 -17 -32 5 -16 150 -88 166 -82 7 3 11 1 8 -3 -7 -12 63 -44 76 -36 6 4 8
2 5 -3 -10 -17 24 -25 42 -11 14 11 14 11 4 -3 -11 -14 -4 -20 55 -45 37 -16
73 -28 79 -28 7 1 11 -2 8 -6 -2 -4 7 -12 21 -19 32 -14 37 -14 31 2 -2 6 2
19 9 27 7 9 16 34 20 57 6 39 4 42 -24 57 -16 8 -32 12 -36 9 -3 -4 -6 -1 -6
5 0 6 -10 14 -22 18 -13 3 -58 24 -101 45 -43 22 -85 39 -93 39 -8 0 -14 4
-14 8 0 10 -100 58 -112 55 -4 -2 -8 1 -8 5 0 4 -11 9 -24 10 -16 1 -29 -7
-40 -23z"/>
<path d="M2178 2503 c12 -2 32 -2 45 0 12 2 2 4 -23 4 -25 0 -35 -2 -22 -4z"/>
<path d="M1806 2438 c-11 -39 0 -62 38 -81 42 -20 54 -51 30 -78 -16 -18 -16
-19 4 -19 14 0 22 -6 22 -17 0 -9 8 -25 18 -36 9 -11 11 -17 5 -13 -9 5 -11 2
-7 -8 6 -17 32 -29 45 -20 13 7 11 -13 -7 -101 -17 -80 -13 -115 5 -48 6 21
20 72 32 113 26 90 22 150 -12 186 -13 14 -54 46 -91 70 -37 25 -68 52 -71 62
-3 13 -6 10 -11 -10z"/>
<path d="M1430 2279 c-113 -55 -221 -107 -240 -116 -47 -22 -46 -20 -25 -43
10 -11 28 -20 39 -19 12 0 118 49 236 107 210 104 215 108 218 140 2 21 -1 32
-10 32 -7 0 -105 -46 -218 -101z"/>
<path d="M2285 2359 c-55 -10 -117 -21 -139 -23 -47 -6 -53 -11 -37 -30 7 -8
10 -20 6 -26 -3 -5 1 -10 9 -10 22 0 20 -19 -10 -86 -33 -74 -44 -104 -40
-104 2 0 20 25 40 56 l37 55 18 -23 c11 -13 34 -32 52 -42 l34 -20 -33 38
c-35 40 -40 78 -10 84 10 2 32 -14 53 -37 20 -22 49 -42 65 -46 40 -9 99 9
150 46 37 27 41 33 28 46 -9 8 -48 19 -89 24 -131 16 -144 22 -59 30 41 4 111
5 155 2 l80 -5 -25 21 c-42 34 -124 71 -155 70 -17 0 -75 -9 -130 -20z"/>
<path d="M3347 2358 c-4 -12 -1 -28 6 -36 15 -19 434 -222 457 -222 9 0 25 9
36 21 16 17 16 22 4 29 -8 6 -18 10 -21 10 -3 0 -108 50 -232 110 -124 61
-230 110 -235 110 -5 0 -12 -10 -15 -22z"/>
<path d="M1450 2178 c-113 -55 -207 -101 -209 -103 -5 -6 38 -102 144 -318 53
-108 91 -175 97 -169 8 8 50 137 78 237 5 17 27 93 50 170 23 77 46 155 50
173 5 19 10 36 13 38 3 3 25 -38 50 -90 l45 -95 -49 -158 c-27 -86 -49 -161
-49 -165 0 -3 40 17 89 45 61 35 93 60 99 77 8 22 -6 57 -97 242 l-106 215
-205 -99z m183 25 c12 -24 12 -35 -1 -80 -8 -29 -18 -53 -21 -53 -5 0 -36 55
-69 122 -4 8 47 37 65 38 7 0 19 -12 26 -27z m-143 -28 c0 -3 -16 -61 -36
-128 -20 -67 -40 -135 -44 -152 -4 -16 -14 -45 -21 -64 l-15 -34 -43 92 -43
93 17 62 17 63 77 35 c79 37 91 42 91 33z m24 -217 c33 -61 34 -64 22 -111 -7
-26 -16 -48 -22 -49 -5 0 -23 26 -41 59 l-32 60 16 51 c9 29 18 52 19 52 2 0
19 -28 38 -62z m324 -142 c-36 -27 -70 -47 -72 -45 -2 2 -10 17 -19 34 -15 30
-14 34 19 125 3 9 18 -8 40 -48 20 -35 34 -65 32 -66z"/>
<path d="M3236 2041 c-64 -131 -116 -240 -116 -243 0 -3 6 -5 13 -6 6 0 50 -8
96 -17 46 -8 85 -14 87 -12 2 1 -15 60 -36 131 l-40 128 46 96 46 97 75 -252
75 -251 42 -16 c23 -9 46 -16 52 -16 9 0 194 371 194 389 0 4 -51 31 -112 61
-62 29 -156 75 -209 101 l-96 48 -117 -238z m207 111 c-46 -81 -46 -81 -65
-17 -15 51 -15 60 -2 80 l15 23 40 -19 39 -20 -27 -47z m169 -12 l76 -34 17
-61 16 -61 -44 -93 c-25 -51 -47 -89 -50 -84 -7 12 -107 351 -107 363 0 7 4
10 8 8 5 -1 43 -19 84 -38z m-62 -176 c13 -46 13 -49 -21 -110 -19 -35 -37
-64 -41 -64 -4 0 -12 24 -19 54 -11 52 -11 55 22 114 18 34 36 59 40 57 3 -3
12 -26 19 -51z m-286 -146 c-3 -10 -11 -18 -18 -18 -27 0 -76 13 -76 19 0 4
14 34 32 66 l32 59 18 -54 c10 -30 16 -62 12 -72z"/>
<path d="M2090 1984 c-12 -13 -10 -14 13 -3 38 17 57 -2 57 -57 0 -47 -11 -54
-44 -29 -11 8 -29 15 -41 15 -12 0 -30 -7 -41 -15 -24 -18 -55 -19 -74 -2 -12
10 -12 9 -1 -5 10 -14 26 -17 75 -15 33 1 73 -2 87 -6 34 -11 59 13 59 56 0
63 -57 101 -90 61z"/>
<path d="M3060 1735 c0 -3 11 -28 25 -55 32 -63 31 -72 -6 -139 -83 -147 -222
-254 -399 -309 -73 -22 -128 -18 -255 17 -38 11 -71 18 -73 16 -2 -2 14 -13
37 -25 23 -11 41 -22 41 -24 0 -2 -23 1 -52 6 -59 11 -92 26 -134 61 -23 19
-44 25 -102 29 -57 4 -78 10 -97 28 -34 32 -60 92 -80 185 -21 96 -51 179 -70
195 -11 9 -19 -1 -44 -52 -75 -153 -81 -332 -17 -455 l17 -33 734 0 734 0 20
29 c38 53 91 175 102 234 12 67 1 135 -32 203 -17 37 -24 42 -62 47 -23 3 -95
15 -160 26 -133 24 -127 23 -127 16z"/>
<path d="M1778 1681 c-16 -10 -25 -21 -20 -26 4 -4 2 -5 -5 -1 -16 9 -65 -23
-56 -37 3 -6 1 -7 -5 -3 -14 8 -134 -58 -124 -69 4 -4 2 -5 -4 -2 -6 4 -34 -6
-63 -21 -36 -20 -48 -32 -41 -40 7 -9 7 -9 -2 -2 -17 14 -25 13 -49 -12 -12
-13 -19 -17 -15 -11 8 14 -55 -16 -66 -32 -4 -5 -8 -6 -8 -2 0 11 -80 -34 -80
-45 0 -5 -4 -7 -9 -4 -5 4 -11 3 -13 -2 -1 -4 -20 -21 -40 -36 -21 -16 -35
-33 -31 -39 4 -6 1 -7 -6 -2 -15 9 -93 -63 -84 -78 3 -6 1 -7 -4 -4 -6 4 -18
-2 -28 -13 -17 -19 -12 -19 369 -20 318 0 386 2 386 13 0 8 -3 17 -7 21 -5 4
-8 11 -8 14 -2 19 -19 58 -29 64 -6 5 -7 8 -1 8 6 0 9 35 7 90 -4 101 7 168
42 253 13 31 23 57 22 56 0 0 -13 -8 -28 -18z m-158 -241 c0 -45 7 -91 20
-127 11 -31 18 -58 16 -61 -7 -6 -449 -2 -456 4 -7 9 60 64 97 80 45 19 148
17 211 -5 29 -10 52 -14 52 -8 0 12 -60 67 -73 67 -4 0 -15 6 -22 14 -12 12
-3 20 63 59 42 25 80 46 85 46 4 1 7 -31 7 -69z m-396 -118 c3 -5 -1 -9 -9 -9
-8 0 -12 4 -9 9 3 4 7 8 9 8 2 0 6 -4 9 -8z"/>
<path d="M3483 1633 c-15 -5 4 -63 20 -63 8 0 8 -3 2 -8 -5 -4 -10 -39 -11
-78 0 -42 -7 -91 -18 -120 -21 -59 -63 -143 -83 -166 -13 -15 9 -16 304 -17
l318 -1 -64 60 c-35 33 -68 57 -73 54 -5 -3 -7 0 -6 8 2 7 -3 12 -10 10 -6 -1
-11 2 -10 8 4 14 -183 180 -195 173 -6 -3 -7 -2 -4 4 3 5 -13 26 -36 47 -23
21 -51 45 -62 55 -28 25 -58 39 -72 34z m167 -203 c26 -22 50 -37 53 -34 3 3
8 0 13 -7 5 -8 3 -10 -7 -5 -15 8 3 -8 77 -69 27 -22 52 -44 55 -49 4 -5 11
-6 16 -3 5 3 10 1 10 -6 0 -9 -40 -12 -156 -10 -86 1 -160 2 -166 3 -16 1 18
20 37 20 9 0 29 5 45 12 15 6 34 10 41 9 9 -1 12 6 10 21 -2 13 -9 22 -16 20
-8 -1 -11 2 -7 8 8 13 -19 52 -31 42 -5 -4 -6 -3 -2 2 4 5 -1 21 -11 35 -30
43 -33 51 -20 51 6 0 33 -18 59 -40z m274 -178 c3 -5 -1 -9 -9 -9 -8 0 -12 4
-9 9 3 4 7 8 9 8 2 0 6 -4 9 -8z"/>
<path d="M70 715 l0 -45 55 0 55 0 0 -275 0 -275 60 0 60 0 0 275 0 275 54 0
c58 0 66 7 66 61 l0 29 -175 0 -175 0 0 -45z"/>
<path d="M540 440 l0 -320 55 0 54 0 3 127 c3 108 5 128 19 131 12 2 30 -29
70 -127 l54 -131 61 0 62 0 -60 135 -60 136 27 21 c65 51 86 183 43 268 -35
67 -69 80 -210 80 l-118 0 0 -320z m220 210 c16 -16 20 -33 20 -79 0 -75 -14
-91 -81 -91 l-49 0 0 95 0 95 45 0 c32 0 51 -6 65 -20z"/>
<path d="M670 635 c0 -8 9 -15 19 -15 28 0 51 -38 51 -82 0 -43 19 -52 22 -10
2 38 -1 95 -7 110 -7 18 -85 16 -85 -3z"/>
<path d="M1130 757 c0 -5 -121 -591 -126 -614 -6 -22 -3 -23 49 -23 l56 0 12
75 12 75 52 0 53 0 7 -42 c18 -119 10 -108 77 -108 52 0 59 2 54 18 -6 20
-126 604 -126 615 0 4 -27 7 -60 7 -33 0 -60 -1 -60 -3z m75 -287 c8 -52 15
-98 15 -102 0 -5 -16 -8 -36 -8 -32 0 -36 2 -31 23 3 12 11 59 18 105 6 46 13
81 15 79 2 -1 10 -45 19 -97z"/>
<path d="M1181 460 c-1 -8 -4 -32 -7 -52 -5 -31 -4 -38 10 -38 11 0 16 8 15
28 -1 31 -16 84 -18 62z"/>
<path d="M1490 440 l0 -320 60 0 60 0 0 320 0 320 -60 0 -60 0 0 -320z"/>
<path d="M1750 440 l0 -320 130 0 130 0 0 45 0 45 -75 0 -75 0 0 275 0 275
-55 0 -55 0 0 -320z"/>
<path d="M2130 440 l0 -320 145 0 145 0 0 45 0 45 -90 0 -90 0 0 105 0 105 60
0 60 0 0 45 0 45 -60 0 -60 0 0 80 0 79 82 3 83 3 3 43 3 42 -141 0 -140 0 0
-320z"/>
<path d="M2520 440 l0 -320 55 0 54 0 3 127 c3 108 5 128 19 131 12 2 30 -29
70 -127 l54 -131 61 0 62 0 -60 135 -60 136 27 21 c65 51 86 185 42 268 -35
67 -69 80 -209 80 l-118 0 0 -320z m220 210 c16 -16 20 -33 20 -79 0 -75 -14
-91 -81 -91 l-49 0 0 95 0 95 45 0 c32 0 51 -6 65 -20z"/>
<path d="M2650 635 c0 -8 9 -15 19 -15 28 0 51 -38 51 -82 0 -40 19 -54 22
-15 3 40 0 98 -6 113 -8 20 -86 19 -86 -1z"/>
<path d="M2970 440 l0 -320 121 0 c209 0 224 22 224 325 0 182 -2 203 -21 239
-32 63 -69 76 -206 76 l-118 0 0 -320z m216 209 c17 -19 19 -38 19 -209 0
-171 -2 -190 -19 -209 -14 -15 -31 -21 -63 -21 l-43 0 0 230 0 230 43 0 c32 0
49 -6 63 -21z"/>
<path d="M3502 448 c-35 -172 -63 -317 -62 -321 0 -4 24 -7 53 -5 l52 3 10 70
10 70 55 0 55 0 10 -70 10 -70 58 -3 c42 -2 57 0 57 10 -1 7 -29 150 -64 318
l-63 305 -59 3 -59 3 -63 -313z m147 -60 c1 -25 -3 -28 -29 -28 -21 0 -30 5
-30 16 0 25 21 158 27 174 6 15 31 -111 32 -162z"/>
<path d="M3608 419 c-2 -28 1 -43 10 -46 19 -8 21 -2 15 45 -7 54 -20 54 -25
1z"/>
<path d="M3930 440 l0 -320 123 0 c141 0 170 11 203 76 17 35 19 62 19 249 0
235 -5 255 -68 294 -30 18 -50 21 -156 21 l-121 0 0 -320z m216 209 c17 -19
19 -38 19 -209 0 -171 -2 -190 -19 -209 -14 -15 -31 -21 -63 -21 l-43 0 0 230
0 230 43 0 c32 0 49 -6 63 -21z"/>
<path d="M4060 635 c0 -8 9 -15 20 -15 35 0 41 -33 42 -215 1 -161 6 -201 22
-159 10 27 7 364 -4 385 -13 24 -80 28 -80 4z"/>
<path d="M4390 757 c0 -1 29 -90 65 -197 l65 -194 0 -123 0 -123 55 0 55 0 0
124 0 124 65 187 c36 103 65 191 65 196 0 5 -25 9 -55 9 l-54 0 -10 -37 c-5
-21 -20 -81 -32 -133 -12 -52 -25 -101 -29 -109 -4 -8 -18 31 -34 95 -15 60
-31 126 -37 147 l-10 37 -54 0 c-30 0 -55 -1 -55 -3z"/>
<path d="M1091 709 c-9 -22 -131 -608 -131 -630 0 -16 106 -11 120 6 11 13 5
15 -44 15 -53 0 -56 1 -51 22 25 108 123 603 120 606 -2 3 -9 -6 -14 -19z"/>
<path d="M3526 720 c-11 -27 -132 -641 -127 -645 11 -12 99 -4 111 10 11 13 5
15 -40 15 l-53 0 6 32 c3 18 31 156 62 306 31 150 54 278 52 285 -3 8 -7 7
-11 -3z"/>
<path d="M500 395 l0 -325 55 0 c42 0 55 3 55 15 0 11 -12 15 -45 15 l-45 0 0
310 c0 200 -4 310 -10 310 -6 0 -10 -115 -10 -325z"/>
<path d="M1452 398 l3 -323 54 0 c35 0 56 5 59 13 2 8 -10 12 -42 12 l-46 0
-2 307 c-2 236 -6 307 -16 311 -10 3 -12 -63 -10 -320z"/>
<path d="M1707 706 c-9 -23 -7 -610 2 -624 11 -18 252 -13 259 6 3 9 -25 12
-117 12 l-121 0 0 310 c0 279 -5 343 -23 296z"/>
<path d="M2090 395 l0 -326 143 3 c184 4 191 22 10 26 l-133 3 0 309 c0 200
-4 310 -10 310 -6 0 -10 -115 -10 -325z"/>
<path d="M2480 395 l0 -325 55 0 c42 0 55 3 55 15 0 11 -12 15 -45 15 l-45 0
0 310 c0 200 -4 310 -10 310 -6 0 -10 -115 -10 -325z"/>
<path d="M3890 395 l0 -325 103 0 c96 0 171 12 181 28 2 4 -56 6 -130 4 l-134
-4 0 311 c0 201 -4 311 -10 311 -6 0 -10 -115 -10 -325z"/>
<path d="M4350 713 c0 -5 29 -96 65 -203 l65 -194 0 -124 0 -123 52 3 c67 4
79 28 14 28 l-46 0 -1 143 0 142 -57 165 c-42 121 -62 166 -74 168 -10 2 -18
0 -18 -5z"/>
<path d="M4601 680 c-7 -25 -16 -61 -22 -80 -5 -19 -9 -44 -9 -55 1 -33 15 2
35 82 19 79 15 126 -4 53z"/>
<path d="M2260 635 c0 -11 12 -15 50 -15 38 0 50 4 50 15 0 11 -12 15 -50 15
-38 0 -50 -4 -50 -15z"/>
<path d="M2260 384 c0 -11 8 -14 27 -12 39 4 42 28 4 28 -21 0 -31 -5 -31 -16z"/>
<path d="M670 318 c0 -39 52 -188 83 -235 12 -19 117 -17 117 1 0 10 -14 16
-42 18 l-43 3 -51 122 c-28 68 -54 126 -57 130 -4 3 -7 -14 -7 -39z"/>
<path d="M2650 318 c0 -39 52 -188 83 -235 12 -19 117 -17 117 1 0 10 -14 16
-42 18 l-43 3 -51 122 c-28 68 -54 126 -57 130 -4 3 -7 -14 -7 -39z"/>
<path d="M1140 235 c0 -10 10 -15 29 -15 27 0 29 -3 35 -47 15 -108 12 -103
70 -103 30 0 60 6 72 15 17 13 14 14 -38 15 -63 0 -59 -6 -74 103 l-6 47 -44
0 c-32 0 -44 -4 -44 -15z"/>
<path d="M3580 236 c0 -9 11 -16 27 -18 26 -3 28 -7 38 -73 l10 -70 56 -3 c41
-2 59 1 69 13 11 13 6 15 -43 15 l-55 0 -9 73 -8 72 -42 3 c-33 2 -43 0 -43
-12z"/>
</g>
</svg>
